<?xml version="1.0" standalone="no"?>
<!DOCTYPE svg PUBLIC "-//W3C//DTD SVG 20010904//EN"
 "http://www.w3.org/TR/2001/REC-SVG-20010904/DTD/svg10.dtd">
<svg version="1.0" xmlns="http://www.w3.org/2000/svg"
 width="100.000000pt" height="100.000000pt" viewBox="0 0 100.000000 100.000000"
 preserveAspectRatio="xMidYMid meet">
<metadata>
Created by potrace 1.14, written by Peter Selinger 2001-2017
</metadata>
<g transform="translate(0.000000,100.000000) scale(0.100000,-0.100000)"
fill="#000000" stroke="none">
<path d="M308 793 l-58 -57 -35 34 -35 34 -27 -27 -28 -27 63 -62 62 -63 87
87 87 87 -24 26 c-13 14 -26 25 -29 25 -4 0 -32 -26 -63 -57z m79 11 c2 -5
-28 -41 -67 -79 l-70 -70 -47 48 c-37 37 -45 49 -35 59 9 9 20 5 47 -22 l35
-34 58 57 c54 54 72 63 79 41z"/>
<path d="M480 740 l0 -60 195 0 195 0 0 60 0 60 -195 0 -195 0 0 -60z m370 15
c0 -25 0 -25 -107 -27 l-108 -2 108 -3 c177 -6 126 -23 -68 -23 l-175 0 0 40
0 40 175 0 175 0 0 -25z"/>
<path d="M598 723 c7 -3 16 -2 19 1 4 3 -2 6 -13 5 -11 0 -14 -3 -6 -6z"/>
<path d="M308 553 l-58 -57 -35 34 -35 34 -27 -27 -28 -27 63 -62 62 -63 87
87 87 87 -24 26 c-13 14 -26 25 -29 25 -4 0 -32 -26 -63 -57z m79 11 c2 -5
-28 -41 -67 -79 l-70 -70 -47 48 c-37 37 -45 49 -35 59 9 9 20 5 47 -22 l35
-34 58 57 c54 54 72 63 79 41z"/>
<path d="M480 500 l0 -60 195 0 195 0 0 60 0 60 -195 0 -195 0 0 -60z m370 0
l0 -40 -175 0 -175 0 0 40 0 40 175 0 175 0 0 -40z"/>
<path d="M308 313 l-58 -57 -35 34 -35 34 -27 -27 -28 -27 63 -62 62 -63 87
87 87 87 -24 26 c-13 14 -26 25 -29 25 -4 0 -32 -26 -63 -57z m79 11 c2 -5
-28 -41 -67 -79 l-70 -70 -47 48 c-37 37 -45 49 -35 59 9 9 20 5 47 -22 l35
-34 58 57 c54 54 72 63 79 41z"/>
<path d="M480 260 l0 -60 195 0 195 0 0 60 0 60 -195 0 -195 0 0 -60z m370 30
c0 -5 -30 -11 -67 -12 l-68 -2 68 -3 c64 -4 67 -5 67 -28 l0 -25 -175 0 -175
0 0 40 0 40 175 0 c110 0 175 -4 175 -10z"/>
<path d="M678 273 c7 -3 16 -2 19 1 4 3 -2 6 -13 5 -11 0 -14 -3 -6 -6z"/>
</g>
</svg>
